<svg width="60" height="60" viewBox="0 0 60 60" fill="none" xmlns="http://www.w3.org/2000/svg">
<path d="M54.375 1.40647H5.625C4.5189 1.39521 3.4535 1.82321 2.66259 2.59654C1.87168 3.36988 1.41985 4.42539 1.40625 5.53147V54.4783C1.42231 55.5828 1.87522 56.6359 2.66586 57.4072C3.45651 58.1785 4.5205 58.6052 5.625 58.594H54.375C55.4812 58.6027 56.5458 58.1733 57.3364 57.3995C58.1269 56.6257 58.5789 55.5704 58.5938 54.4643V5.5174C58.574 4.41457 58.1198 3.36409 57.3298 2.59431C56.5399 1.82452 55.478 1.39764 54.375 1.40647Z" fill="#0076B2"/>
<path d="M9.87031 22.8423H18.3594V50.1563H9.87031V22.8423ZM14.1172 9.24854C15.0908 9.24854 16.0426 9.53732 16.8521 10.0783C17.6616 10.6194 18.2925 11.3883 18.6649 12.288C19.0372 13.1876 19.1344 14.1775 18.9441 15.1323C18.7539 16.0872 18.2846 16.9642 17.5958 17.6524C16.907 18.3405 16.0296 18.8089 15.0745 18.9983C14.1195 19.1877 13.1297 19.0895 12.2304 18.7163C11.3311 18.343 10.5628 17.7115 10.0225 16.9014C9.48226 16.0914 9.19439 15.1394 9.19531 14.1657C9.19656 12.8612 9.71566 11.6105 10.6386 10.6885C11.5615 9.76644 12.8126 9.24853 14.1172 9.24854ZM23.6844 22.8423H31.8219V26.5923H31.9344C33.0688 24.4454 35.8344 22.1813 39.9641 22.1813C48.5609 22.1626 50.1547 27.8204 50.1547 35.1563V50.1563H41.6656V36.8673C41.6656 33.7032 41.6094 29.6298 37.2547 29.6298C32.9 29.6298 32.1594 33.0798 32.1594 36.661V50.1563H23.6844V22.8423Z" fill="white"/>
</svg>
