<svg width="64" height="45" viewBox="0 0 64 45" fill="none" xmlns="http://www.w3.org/2000/svg">
<g clip-path="url(#clip0_579_3571)">
<path d="M62.5876 7.04674C62.2205 5.68472 61.5044 4.44301 60.5107 3.44526C59.5169 2.4475 58.2801 1.72852 56.9235 1.3599C51.9569 0 31.9681 0 31.9681 0C31.9681 0 11.9783 0.0411634 7.01167 1.40107C5.65502 1.7697 4.41823 2.48873 3.42447 3.48653C2.4307 4.48433 1.71463 5.72609 1.34757 7.08816C-0.154705 15.9478 -0.737464 29.448 1.38882 37.9533C1.75592 39.3153 2.47201 40.557 3.46577 41.5547C4.45953 42.5525 5.6963 43.2715 7.05292 43.6401C12.0195 45 32.0088 45 32.0088 45C32.0088 45 51.9979 45 56.9643 43.6401C58.3209 43.2715 59.5577 42.5526 60.5516 41.5548C61.5454 40.557 62.2615 39.3153 62.6286 37.9533C64.2131 29.081 64.7014 15.5892 62.5876 7.04674Z" fill="#FF0000"/>
<path d="M25.6055 32.0152L42.1875 22.4107L25.6055 12.8062V32.0152Z" fill="white"/>
</g>
<defs>
<clipPath id="clip0_579_3571">
<rect width="64" height="45" fill="white"/>
</clipPath>
</defs>
</svg>
