<svg width="51" height="59" viewBox="0 0 51 59" fill="none" xmlns="http://www.w3.org/2000/svg">
<path d="M50.9715 10.5406C50.973 10.8284 50.8198 11.0949 50.5702 11.2384L26.0764 25.3192L25.1539 25.8499C25.143 25.8561 25.1296 25.8559 25.119 25.8493L10.7239 17.6558C10.1906 17.3522 9.52818 17.7374 9.52818 18.3511V48.1213C9.52818 48.7413 8.85356 49.1256 8.32028 48.8095L0.3921 44.1105C0.149041 43.9664 0 43.7048 0 43.4223V1.37247C0 0.759573 0.660935 0.374317 1.19424 0.676352L9.52818 5.39624L24.8288 14.0633C25.0627 14.1958 25.3476 14.202 25.587 14.0796L49.7646 1.72899C50.2952 1.45792 50.9253 1.84131 50.9285 2.43717L50.9715 10.5406Z" fill="#001856"/>
<path d="M50.9493 43.5466C50.9478 43.8278 50.7987 44.0877 50.5567 44.2309L25.9988 58.7594C25.7477 58.908 25.4357 58.908 25.1845 58.7596L23.8092 57.9469L22.8224 57.3641L14.6734 52.5344C14.4303 52.3904 14.2812 52.1288 14.2812 51.8462V23.8497C14.2812 23.2404 14.9352 22.8548 15.4684 23.1496L23.3963 27.5338C23.651 27.6747 23.8092 27.9428 23.8092 28.2339V46.5815C23.8092 46.8087 23.9058 47.0252 24.0749 47.1769L24.7372 47.7711C24.9961 48.0034 25.3754 48.0418 25.6756 47.8661L42.9865 37.7317C43.2317 37.5882 43.3824 37.3254 43.3824 37.0413V32.7838C43.3824 32.1592 42.6985 31.7755 42.1654 32.1011L28.9166 40.1918C28.3835 40.5173 27.6997 40.1337 27.6997 39.509V29.8605C27.6997 29.5665 27.8609 29.2961 28.1197 29.1565L49.7743 17.4685C50.3056 17.1817 50.9509 17.5643 50.9543 18.1681L51.0015 26.7039V33.7407L50.9493 43.5466Z" fill="#0048FF"/>
</svg>
