<svg width="71" height="209" viewBox="0 0 71 209" fill="none" xmlns="http://www.w3.org/2000/svg">
<path d="M70.0476 0.499987C46.9927 1.4853 34.8387 2.31272 33.8265 25.7672C33.3195 37.5171 37.416 43.2949 47.7174 46.0551C54.5655 47.8901 55.7884 37.1738 48.761 35.2908C39.5908 32.8337 29.6685 34.0976 21.8223 40.037C3.49857 53.9075 11.1904 87.1355 20.4487 103.172C24.1272 109.543 37.8747 114.695 34.7264 103.316C32.5028 95.2795 19.4381 96.2878 14.0394 99.6138C-10.4168 114.68 3.66462 144.504 14.339 162.992C17.9256 169.205 26.5854 181.883 32.5538 185.462C37.3914 188.362 17.0662 195.061 27.3619 190.717C33.3199 188.204 42.5559 182.429 45.0995 176.041C46.3263 172.959 45.56 191.707 46.0316 194.697C46.8227 199.714 49.4349 211.514 44.2484 206.695C39.9541 202.705 32.4812 196.588 27.0958 195.145" stroke="#D0D0D0" stroke-linecap="round"/>
</svg>
