<svg width="45" height="45" viewBox="0 0 45 45" fill="none" xmlns="http://www.w3.org/2000/svg">
<path d="M8.82604 2.14445C8.67663 2.21477 8.52721 2.32903 8.49206 2.41691C8.46569 2.49601 8.43932 5.73918 8.43932 9.61515V16.6728L8.11413 17.0243C7.78014 17.3759 2.46276 26.4902 2.18151 27.1845C1.87389 27.9403 2.09362 28.9071 2.69127 29.4521C2.99889 29.7333 6.15417 31.5702 6.58483 31.7109C7.29674 31.957 8.36022 31.6845 8.78209 31.1484L8.94909 30.9374L10.1005 32.3788L11.2518 33.8202L11.0233 34.3124C10.4432 35.5956 11.0585 36.9843 12.412 37.4501L12.869 37.5995L12.9745 38.1444C13.1063 38.7509 13.3348 39.1728 13.7303 39.5068C14.2225 39.9198 14.6883 40.1044 15.2684 40.1132C15.8133 40.122 15.8133 40.122 15.9628 40.456C16.1473 40.8603 16.745 41.4228 17.202 41.6249C17.6063 41.8007 18.5907 41.8271 18.8983 41.6601C19.0741 41.5634 19.118 41.5634 19.1444 41.6601C19.2411 41.9413 19.909 42.539 20.3309 42.7148C20.8846 42.9609 21.5878 42.9696 22.1327 42.7587C22.4755 42.6181 23.3807 41.748 23.3807 41.5546C23.3807 41.414 23.5829 41.5019 24.6376 42.0995C26.0174 42.8818 26.5712 42.996 27.4325 42.6444C28.0301 42.4071 28.6454 41.581 28.786 40.8427C28.8475 40.5439 28.8739 40.5175 29.3046 40.4296C29.5507 40.3769 29.911 40.2275 30.1044 40.0956C30.535 39.8056 31.0008 39.1288 31.1239 38.6278C31.2118 38.2675 31.2294 38.2499 31.6424 38.206C31.8798 38.1796 32.2225 38.0741 32.4159 37.9775C32.9081 37.7226 33.4618 37.0634 33.62 36.5361C33.787 35.9736 33.787 35.745 33.6112 35.165L33.4794 34.7079L33.8397 34.3476C34.5165 33.6972 34.7538 32.8183 34.5077 31.9482C34.4198 31.6757 34.3671 31.4384 34.3846 31.4208C34.4725 31.3329 35.7469 30.6737 35.8173 30.6825C35.87 30.6825 36.0106 30.832 36.1337 31.0165C36.5819 31.6669 37.6278 31.9833 38.4188 31.7109C38.8583 31.5614 42.0135 29.7333 42.3124 29.4609C42.91 28.9071 43.1297 27.9316 42.8221 27.1845C42.5409 26.4902 37.2235 17.3759 36.8983 17.0243L36.5643 16.6728V9.60637C36.5643 5.1591 36.5292 2.47844 36.4764 2.37297C36.4325 2.28508 36.2655 2.17082 36.1161 2.11809C35.9139 2.04778 32.0116 2.02141 22.4667 2.02141C11.4452 2.0302 9.05456 2.04778 8.82604 2.14445ZM35.1581 9.92277V16.4091L34.8944 16.4706C34.6219 16.5234 31.4842 18.2987 30.9745 18.6855C30.5702 18.9843 30.2362 19.705 30.2362 20.2675V20.7245L29.8231 20.8124C28.3378 21.1376 26.4481 21.1552 24.9628 20.8827C23.0204 20.5136 22.3348 20.4433 21.6493 20.54C20.8407 20.6542 19.7596 21.164 19.1005 21.7441L18.6522 22.1484L16.7274 21.4628L14.8114 20.7861L14.7587 20.206C14.6971 19.4853 14.3895 18.914 13.8622 18.5624C13.0975 18.0439 10.3641 16.5146 10.1092 16.4706L9.84557 16.4091V9.92277V3.42765H22.5018H35.1581V9.92277ZM35.9139 18.0527C36.2303 18.3691 41.5741 27.7382 41.5741 27.9579C41.5741 28.0722 41.5126 28.2392 41.451 28.3183C41.2665 28.5644 38.0057 30.4101 37.7596 30.4101C37.6366 30.4101 37.4432 30.3222 37.329 30.2079C37.0038 29.9091 31.6424 20.54 31.6424 20.2763C31.6424 19.9159 31.9413 19.6786 33.4003 18.8437C35.5624 17.6132 35.5096 17.6308 35.9139 18.0527ZM11.41 18.7294C13.0624 19.6786 13.3612 19.9159 13.3612 20.2763C13.3612 20.54 7.99987 29.9091 7.67467 30.2079C7.56042 30.3222 7.36706 30.4101 7.24401 30.4101C6.99792 30.4101 3.73717 28.5644 3.5526 28.3183C3.49108 28.2392 3.42956 28.0722 3.42956 27.9579C3.42956 27.747 8.74694 18.4218 9.08092 18.0351C9.41491 17.6747 9.71374 17.7626 11.41 18.7294ZM24.0839 22.1659C25.3846 22.412 25.701 22.4384 27.204 22.4384C28.5839 22.4472 29.0321 22.412 29.7967 22.2538C30.3065 22.1484 30.7635 22.0605 30.8163 22.0605C30.8866 22.0605 34.4637 28.1249 35.1317 29.373C35.1581 29.4345 33.2948 30.4101 33.1366 30.4101C33.0839 30.4101 31.159 29.3114 28.8475 27.9755C26.5448 26.6396 24.4618 25.4706 24.2157 25.3827C23.3192 25.0663 22.203 25.2685 20.744 25.9892L20.0848 26.3232L19.5048 27.4921C19.1883 28.1337 18.7928 28.7929 18.6346 28.9599C18.2215 29.3905 17.246 29.6894 17.0965 29.4433C17.0614 29.3905 17.079 28.4677 17.1317 27.3954L17.2284 25.4443L18.4413 24.2753C20.454 22.3241 21.0956 21.9198 22.2382 21.8935C22.4579 21.8847 23.284 22.0077 24.0839 22.1659ZM15.8573 22.6493L17.5184 23.2382L16.7186 24.0116C16.2704 24.4335 15.8924 24.873 15.8749 24.9784C15.8485 25.0927 15.787 26.1122 15.7342 27.2548C15.6024 29.953 15.6991 30.3398 16.578 30.7616C17.1669 31.0517 17.9051 30.9726 18.7753 30.5419C19.5926 30.1464 20.0233 29.6278 20.6737 28.2831L21.1307 27.3427L21.8602 27.0263C22.6864 26.6659 23.3192 26.5605 23.7323 26.7011C24.2333 26.8769 32.7323 31.8339 32.9872 32.0888C33.2508 32.3788 33.286 32.6689 33.0926 33.0468C32.9257 33.3808 32.6356 33.5741 32.3192 33.5741C32.1522 33.5741 31.493 33.2489 30.4735 32.6513C28.7772 31.6669 28.5135 31.579 28.1532 31.9218C27.9247 32.1327 27.8895 32.5546 28.0653 32.8007C28.1268 32.8798 29.0057 33.4247 30.0165 34.0048C31.871 35.0771 32.3456 35.4462 32.3456 35.7802C32.3456 36.123 32.0643 36.5712 31.7567 36.7206C31.3612 36.9052 31.3348 36.8964 28.9706 35.5165C27.8016 34.831 26.9051 34.3652 26.7645 34.3652C26.2899 34.3652 25.9559 34.9804 26.1932 35.4198C26.2372 35.5077 27.0194 36.0087 27.9159 36.5273C29.2167 37.2919 29.5858 37.538 29.6913 37.7577C29.8495 38.1093 29.788 38.4081 29.454 38.7773C29.0409 39.2431 28.8299 39.1816 26.8964 38.0478C25.0419 36.9667 24.8133 36.8964 24.4618 37.3007C24.2245 37.5732 24.2069 37.8456 24.3915 38.1181C24.4618 38.2148 25.1122 38.6454 25.8417 39.0673C26.5712 39.4892 27.2303 39.9286 27.3094 40.0429C27.494 40.3329 27.4061 40.8251 27.1073 41.1503C26.7206 41.5458 26.3954 41.4931 25.2704 40.8339L24.3036 40.2802L24.3387 39.7353C24.3563 39.4277 24.3212 39.0058 24.2596 38.7948C24.1102 38.2763 23.5214 37.6259 22.9501 37.3534C22.6161 37.204 22.5106 37.1073 22.5458 37.0107C22.5809 36.9316 22.6249 36.6855 22.6512 36.4657C22.7831 35.3847 21.869 34.2333 20.6825 33.9784C20.4364 33.9257 20.3924 33.8642 20.3397 33.5917C20.0936 32.1943 18.5995 31.2626 17.2987 31.7021L16.7977 31.8691L16.4901 31.4999C16.0506 30.9726 15.4003 30.6737 14.7059 30.6737C13.7743 30.6737 13.2733 30.9902 12.5702 32.0273C12.3505 32.3437 12.1483 32.6073 12.1219 32.6073C12.0253 32.6073 9.74889 29.6894 9.77526 29.5839C9.8192 29.3993 14.0819 22.0605 14.1434 22.0605C14.1698 22.0605 14.9432 22.3241 15.8573 22.6493ZM15.3475 32.3788C15.8397 32.871 15.7958 33.0556 14.6796 34.6376C13.6688 36.079 13.4315 36.29 12.9569 36.1757C12.5702 36.079 12.2186 35.6571 12.2186 35.288C12.2186 35.0243 12.3768 34.7431 13.1151 33.6884C13.5985 32.9853 14.0819 32.3349 14.1786 32.247C14.2928 32.1415 14.4862 32.08 14.7059 32.08C14.9784 32.08 15.1102 32.1415 15.3475 32.3788ZM18.5204 33.1874C18.8456 33.3896 19.0126 33.8027 18.9071 34.1103C18.784 34.4618 16.0331 38.3642 15.7518 38.5839C15.4706 38.8124 15.2157 38.8036 14.8465 38.5575C14.4686 38.3027 14.284 37.9775 14.3544 37.6874C14.4071 37.4765 16.9559 33.7587 17.3514 33.3193C17.6942 32.9413 18.0809 32.8974 18.5204 33.1874ZM20.9901 35.7275C21.4735 36.246 21.4999 36.1845 19.6014 38.8739C19.0477 39.665 18.5819 40.2362 18.4325 40.3066C18.0985 40.4823 17.7381 40.3944 17.4042 40.0605C17.0702 39.7265 17.0526 39.3486 17.369 38.8827C18.3358 37.4501 19.6542 35.6571 19.8475 35.4989C20.1815 35.2353 20.6122 35.3232 20.9901 35.7275ZM22.2821 38.5839C22.6424 38.7245 22.9413 39.1025 22.9413 39.4277C22.9413 39.8144 21.9481 41.2909 21.579 41.4491C21.2186 41.5986 20.8758 41.5107 20.5682 41.203C20.1551 40.7987 20.2079 40.4999 20.8495 39.5507C21.5174 38.5663 21.7723 38.3905 22.2821 38.5839Z" fill="#4C7FFF"/>
<path d="M16.3924 6.43327C16.2957 6.486 15.8299 6.90788 15.3641 7.36491L14.5028 8.20866L14.1248 7.83952C13.659 7.38249 13.2196 7.32975 12.9295 7.6989C12.5955 8.12077 12.6746 8.31413 13.5272 9.16667C14.5819 10.2214 14.5115 10.2301 16.1551 8.58659C17.5438 7.18034 17.6141 7.0485 17.1483 6.58268C16.8758 6.31022 16.6824 6.27507 16.3924 6.43327Z" fill="#4C7FFF"/>
<path d="M20.2537 7.59375C19.8142 7.78711 19.7176 8.3584 20.0691 8.68359L20.2713 8.87695H26.0545H31.8289L32.0398 8.65723C32.3211 8.38477 32.3211 8.07715 32.0486 7.76074L31.8377 7.51465L26.1775 7.49707C21.572 7.47949 20.4734 7.49707 20.2537 7.59375Z" fill="#4C7FFF"/>
<path d="M16.4733 13.9834C16.3854 14.0186 15.9284 14.4229 15.4714 14.8887C15.0143 15.3545 14.6013 15.7324 14.5485 15.7324C14.4958 15.7324 14.2936 15.5742 14.1091 15.3809C13.8542 15.1172 13.696 15.0293 13.485 15.0293C13.1247 15.0293 12.8522 15.2578 12.7819 15.627C12.7292 15.8994 12.7643 15.9609 13.5114 16.708C14.1354 17.332 14.3464 17.4902 14.5485 17.4902C14.7595 17.4902 15.0319 17.2705 16.1042 16.1895C17.5016 14.792 17.5808 14.6602 17.2292 14.2207C17.0446 13.9746 16.737 13.8779 16.4733 13.9834Z" fill="#4C7FFF"/>
<path d="M20.0573 15.2314C19.864 15.4336 19.8112 15.7588 19.9167 16.04C20.0661 16.4268 20.1452 16.4355 26.1042 16.4355H31.7468L32.0104 16.1719C32.2302 15.9434 32.2653 15.8555 32.2214 15.6182C32.195 15.46 32.0807 15.2666 31.9841 15.1787C31.8083 15.0381 31.3952 15.0293 26.0251 15.0293H20.2419L20.0573 15.2314Z" fill="#4C7FFF"/>
</svg>
