<svg width="46" height="46" viewBox="0 0 46 46" fill="none" xmlns="http://www.w3.org/2000/svg">
<g clip-path="url(#clip0_347_1193)">
<path d="M2.42383 6.52295C1.48047 6.77451 0.680859 7.46631 0.249609 8.40967L0.0429688 8.8499V16.4866V24.1233L0.285547 24.6354C0.617969 25.3452 1.16602 25.9112 1.87578 26.2616C2.45977 26.5491 2.46875 26.5491 4.01406 26.5761L5.56836 26.612V28.6425C5.56836 30.5292 5.58633 30.6999 5.74805 30.9784C5.93672 31.2839 6.39492 31.5354 6.7543 31.5354C7.07773 31.5354 7.34727 31.3288 10.1504 28.894L12.8008 26.594H14.6695H16.5293V29.1366C16.5293 31.1401 16.5562 31.787 16.6641 32.2093C16.9246 33.1976 17.5984 33.9882 18.5598 34.4284C18.973 34.6171 19.1437 34.6351 21.0395 34.662L23.0879 34.689L23.3125 34.4644C23.6 34.1769 23.6 33.8354 23.3125 33.5569C23.0969 33.3323 23.0879 33.3323 21.2641 33.3323C19.4223 33.3323 19.4223 33.3323 18.9461 33.0808C18.5957 32.9011 18.3891 32.7124 18.1914 32.389L17.9219 31.9577L17.8949 29.2714L17.868 26.594H22.2613C27.1129 26.594 27.1758 26.5851 28.0023 26.028C28.5145 25.6687 29.0445 25.0038 29.2602 24.4378C29.3949 24.0784 29.4219 23.5663 29.4488 19.9187L29.4758 15.8128H36.2859H43.1051L43.5812 16.0644C43.9316 16.244 44.1383 16.4327 44.3359 16.7562L44.6055 17.1874L44.6324 21.2394C44.6594 25.2374 44.6594 25.2913 44.848 25.489C45.1266 25.7854 45.5668 25.7675 45.8184 25.453C46.007 25.2104 46.007 25.1745 45.9801 21.0776L45.9531 16.9358L45.7105 16.4147C45.3781 15.705 44.6504 14.9952 43.9766 14.7257L43.4375 14.5101L36.4566 14.4831L29.4848 14.4651L29.4488 11.698L29.4219 8.93975L29.1344 8.33779C28.775 7.58311 28.2629 7.071 27.5082 6.71162L26.9062 6.42412H18.0387C8.26367 6.42412 8.95547 6.3792 8.83867 6.98115C8.79375 7.21475 8.82969 7.31357 9.00937 7.49326L9.24297 7.72686H17.8051C23.609 7.72686 26.475 7.76279 26.7176 7.82568C27.2387 7.96943 27.8227 8.55342 27.9844 9.10147C28.173 9.73936 28.182 23.3956 27.9934 23.9257C27.8137 24.4108 27.4633 24.8331 27.068 25.0308C26.7445 25.1925 26.3582 25.2015 19.5211 25.2464L12.3246 25.2913L12.0191 25.5159C11.8574 25.6327 10.6625 26.6569 9.36875 27.78C8.06602 28.903 6.98789 29.8284 6.96094 29.8284C6.93398 29.8284 6.91602 28.9929 6.91602 27.9597C6.91602 25.2554 6.90703 25.2464 4.38242 25.2464C2.99883 25.2464 2.80117 25.2284 2.45078 25.0577C1.99258 24.8331 1.58828 24.3749 1.44453 23.9077C1.37266 23.6651 1.3457 21.5089 1.3457 16.4147V9.27217L1.59727 8.796C1.77695 8.44561 1.96562 8.23897 2.28906 8.04131L2.72031 7.77178L4.83164 7.72686C6.78125 7.68193 6.94297 7.67295 7.05977 7.51123C7.26641 7.21475 7.22148 6.77451 6.95195 6.56787C6.72734 6.38818 6.60156 6.3792 4.81367 6.38818C3.44805 6.38818 2.7832 6.42412 2.42383 6.52295Z" fill="#4C7FFF"/>
<path d="M13.681 10.422C12.576 10.7814 11.6775 11.9224 11.5338 13.1353C11.4799 13.6025 11.4978 13.6564 11.7045 13.872C11.8482 14.0158 12.0369 14.1056 12.1986 14.1056C12.5131 14.1056 12.8455 13.7732 12.8455 13.4677C12.8455 12.3716 13.8428 11.4911 14.9388 11.6169C17.0861 11.8775 17.0951 14.9232 14.9388 15.2736C14.0943 15.4173 14.0674 15.4802 14.0314 17.1333C13.9955 18.6697 14.0224 18.8763 14.283 19.1368C14.5166 19.3704 14.8221 19.3615 15.1275 19.1279C15.3611 18.9482 15.3611 18.9302 15.3611 17.7802C15.3611 16.747 15.3791 16.6122 15.5228 16.5583C16.8435 16.1181 17.6431 15.2286 17.8678 13.9618C18.29 11.6349 15.9721 9.6763 13.681 10.422Z" fill="#4C7FFF"/>
<path d="M32.0731 18.7773C31.6868 19.1637 31.9473 19.7926 32.5403 19.9004C32.702 19.9273 34.7055 19.9453 36.9786 19.9273C40.9137 19.9004 41.1383 19.8914 41.318 19.7297C41.5606 19.5051 41.5786 18.957 41.345 18.7504C41.1923 18.6156 40.743 18.5976 36.718 18.5976C32.3696 18.5976 32.2438 18.6066 32.0731 18.7773Z" fill="#4C7FFF"/>
<path d="M14.39 20.7271C14.2014 20.799 14.0037 21.2751 14.0666 21.5177C14.2553 22.2634 15.3603 22.1197 15.3603 21.347C15.3603 20.8708 14.8482 20.5384 14.39 20.7271Z" fill="#4C7FFF"/>
<path d="M32.2865 23.6648C31.8552 23.8535 31.7474 24.3836 32.0709 24.707C32.2416 24.8777 32.3674 24.8867 36.7248 24.8867C40.9564 24.8867 41.217 24.8777 41.3517 24.725C41.5674 24.4824 41.5494 23.9613 41.3158 23.7547C41.1361 23.593 40.9115 23.584 36.8416 23.566C33.3916 23.548 32.5111 23.566 32.2865 23.6648Z" fill="#4C7FFF"/>
<path d="M44.8751 27.5373L44.6505 27.7529V29.7025C44.6505 30.9783 44.6145 31.7779 44.5426 32.0205C44.3989 32.4967 43.788 33.1076 43.3387 33.2334C43.1411 33.2873 42.3055 33.3322 41.461 33.3322C40.1044 33.3322 39.8977 33.3502 39.6462 33.5119C39.152 33.8084 39.1251 33.9252 39.0801 36.0185L39.0352 37.9502L37.9571 37.0068C35.2798 34.6709 34.2106 33.7635 33.9051 33.5568L33.5727 33.3322H29.6016C25.7204 33.3322 25.6216 33.3322 25.388 33.5209C25.0825 33.7635 25.0645 34.2127 25.361 34.4822C25.5676 34.6799 25.5946 34.6799 29.386 34.6799H33.2134L35.9446 37.0607C37.7864 38.6689 38.7837 39.4685 39.0083 39.5404C39.4575 39.6842 39.9426 39.5045 40.2212 39.0912C40.4188 38.7947 40.4278 38.7138 40.4278 36.7373V34.6978L41.9821 34.6619C43.4376 34.6349 43.5544 34.617 44.0395 34.3924C44.7493 34.0599 45.3153 33.5119 45.6657 32.8021L45.9532 32.2181L45.9801 29.99L46.0161 27.7709L45.7825 27.5373C45.495 27.2498 45.1536 27.2498 44.8751 27.5373Z" fill="#4C7FFF"/>
<path d="M21.3199 28.6602C20.9156 28.8219 20.8078 29.3879 21.1132 29.7203L21.3019 29.918H31.2207C41.0316 29.918 41.1484 29.918 41.3281 29.7383C41.5976 29.4688 41.5707 28.9926 41.2742 28.759C41.0316 28.5703 41.0136 28.5703 31.2746 28.5793C25.884 28.5793 21.4277 28.6152 21.3199 28.6602Z" fill="#4C7FFF"/>
</g>
<defs>
<clipPath id="clip0_347_1193">
<rect width="46" height="46" fill="white"/>
</clipPath>
</defs>
</svg>
