<svg width="360" height="300" viewBox="0 0 360 300" fill="none" xmlns="http://www.w3.org/2000/svg">
<mask id="path-1-inside-1_347_1153" fill="white">
<path d="M330 0C346.569 0 360 13.4315 360 30V270C360 286.569 346.569 300 330 300H30C13.4315 300 2.41612e-07 286.569 0 270V30C3.8658e-06 13.4315 13.4315 4.83195e-07 30 0H100C111.046 0 119.674 9.20007 123.287 19.6379C131.421 43.1307 153.741 60 180 60C206.259 60 228.579 43.1307 236.713 19.6379C240.326 9.20007 248.954 0 260 0H330Z"/>
</mask>
<path d="M330 0C346.569 0 360 13.4315 360 30V270C360 286.569 346.569 300 330 300H30C13.4315 300 2.41612e-07 286.569 0 270V30C3.8658e-06 13.4315 13.4315 4.83195e-07 30 0H100C111.046 0 119.674 9.20007 123.287 19.6379C131.421 43.1307 153.741 60 180 60C206.259 60 228.579 43.1307 236.713 19.6379C240.326 9.20007 248.954 0 260 0H330Z" fill="#F7FAFF"/>
<path d="M360 30H361H360ZM360 270H361V270H360ZM330 300V301V301V300ZM0 270H-1H0ZM0 30H-1V30H0ZM30 0V-1V-1V0ZM236.713 19.6379L237.658 19.9651L236.713 19.6379ZM330 0V1C346.016 1 359 13.9837 359 30H360H361C361 12.8792 347.121 -1 330 -1V0ZM360 30H359V270H360H361V30H360ZM360 270H359C359 286.016 346.016 299 330 299V300V301C347.121 301 361 287.121 361 270H360ZM330 300V299H30V300V301H330V300ZM30 300V299C13.9837 299 1 286.016 1 270H0H-1C-1 287.121 12.8792 301 30 301V300ZM0 270H1V30H0H-1V270H0ZM0 30H1C1 13.9837 13.9837 1 30 1V0V-1C12.8792 -1 -0.999996 12.8792 -1 30H0ZM30 0V1H100V0V-1H30V0ZM123.287 19.6379L122.342 19.9651C130.611 43.8481 153.301 61 180 61V60V59C154.18 59 132.231 42.4133 124.232 19.3107L123.287 19.6379ZM180 60V61C206.699 61 229.389 43.8481 237.658 19.9651L236.713 19.6379L235.768 19.3107C227.769 42.4133 205.82 59 180 59V60ZM260 0V1H330V0V-1H260V0ZM236.713 19.6379L237.658 19.9651C241.199 9.73628 249.555 1 260 1V0V-1C248.354 -1 239.454 8.66386 235.768 19.3107L236.713 19.6379ZM100 0V1C110.445 1 118.801 9.73628 122.342 19.9651L123.287 19.6379L124.232 19.3107C120.546 8.66386 111.646 -1 100 -1V0Z" fill="#CCDFFF" mask="url(#path-1-inside-1_347_1153)"/>
</svg>
