<svg width="46" height="46" viewBox="0 0 46 46" fill="none" xmlns="http://www.w3.org/2000/svg">
<g clip-path="url(#clip0_347_1204)">
<path d="M22.1539 2.24612C21.5879 2.38987 20.7793 2.87503 20.384 3.29729C20.1863 3.51292 19.8898 3.96214 19.7371 4.29456L19.4496 4.89651V6.46878V8.04104L19.7371 8.64299C19.8898 8.97542 20.1863 9.42464 20.393 9.64924C20.7883 10.0805 21.8574 10.6824 22.2707 10.7094C22.3965 10.7184 21.7945 10.7453 20.932 10.7813C19.5125 10.8262 19.3148 10.8532 18.9105 11.0508C18.3355 11.3293 17.7965 11.8684 17.518 12.4434C17.3113 12.8567 17.2934 13.0094 17.2664 14.4828L17.2305 16.0731L17.4641 16.3067C17.7336 16.5762 18.1289 16.6032 18.4254 16.3606C18.632 16.1989 18.641 16.136 18.6859 14.6625C18.7309 12.9914 18.7668 12.8836 19.3508 12.4524C19.5934 12.2727 19.7012 12.2637 22.9984 12.2637C26.2957 12.2637 26.4035 12.2727 26.6461 12.4524C27.2301 12.8836 27.266 12.9914 27.3109 14.6625C27.3559 16.136 27.3648 16.1989 27.5715 16.3606C27.868 16.6032 28.2633 16.5762 28.5328 16.2977L28.7664 16.0731L28.7305 14.4828L28.7035 12.8926L28.398 12.3266C28.0656 11.7067 27.6793 11.3383 27.0414 11.0328C26.691 10.8621 26.4305 10.8262 25.0648 10.7813C24.2023 10.7453 23.6004 10.7184 23.7262 10.7094C24.1395 10.6824 25.2086 10.0805 25.6039 9.64924C25.8105 9.42464 26.107 8.97542 26.2598 8.64299L26.5473 8.04104V6.45979V4.88753L26.2148 4.20471C25.6039 2.98284 24.5258 2.25511 23.1961 2.19221C22.8187 2.17425 22.3516 2.2012 22.1539 2.24612ZM23.6633 3.70159C24.1574 3.84534 24.9031 4.59104 25.0469 5.08518C25.1098 5.29182 25.1547 5.91175 25.1547 6.46878C25.1547 7.02581 25.1098 7.64573 25.0469 7.85237C24.9031 8.34651 24.1574 9.09221 23.6633 9.23596C22.8187 9.48753 22.1449 9.30784 21.516 8.66995C20.941 8.10393 20.8422 7.77151 20.8422 6.46878C20.8422 5.16604 20.941 4.83362 21.516 4.2676C22.1449 3.62971 22.8187 3.45901 23.6633 3.70159Z" fill="#4C7FFF"/>
<path d="M16.3066 9.2C12.7758 10.6555 9.70312 13.243 7.72656 16.4234C6.91797 17.7441 6.01953 19.7027 6.01953 20.1789C6.01953 20.4844 6.39687 20.8438 6.71133 20.8438C7.10664 20.8438 7.32227 20.6281 7.54688 20.0172C7.87031 19.1098 8.84961 17.277 9.47852 16.3965C10.5656 14.8781 12.0031 13.4496 13.5395 12.3445C14.402 11.7246 16.2348 10.7453 17.1422 10.4219C17.7531 10.1973 17.9688 9.98164 17.9688 9.58633C17.9688 9.25391 17.6094 8.89453 17.277 8.89453C17.1422 8.90352 16.702 9.03828 16.3066 9.2Z" fill="#4C7FFF"/>
<path d="M28.2557 9.11906C28.0042 9.36164 27.9682 9.74797 28.1659 10.0265C28.2288 10.1343 28.5432 10.305 28.8577 10.4218C29.7651 10.7452 31.5979 11.7245 32.4784 12.3534C35.1198 14.2402 37.285 16.9894 38.3721 19.8105C38.5159 20.2058 38.7225 20.6011 38.8303 20.682C39.0999 20.9155 39.4952 20.8886 39.7737 20.6101C40.0792 20.2956 40.0343 19.9902 39.4593 18.7054C38.0128 15.453 35.7846 12.8116 32.8468 10.862C31.4811 9.96359 29.235 8.89445 28.696 8.89445C28.5702 8.89445 28.3725 8.99328 28.2557 9.11906Z" fill="#4C7FFF"/>
<path d="M21.5177 18.1483C21.0056 18.3999 20.781 18.7952 20.6642 19.5858C20.6103 19.9452 20.5653 20.2507 20.5474 20.2597C20.5384 20.2687 20.3317 20.3405 20.0981 20.4304L19.6669 20.5921L19.2716 20.2687C18.1935 19.3792 17.5466 19.487 16.3247 20.7448C15.1567 21.9397 15.0849 22.5237 15.9563 23.5929L16.2888 23.9882L16.136 24.3925C16.0462 24.6171 15.9384 24.8147 15.8935 24.8507C15.8485 24.8776 15.5341 24.9405 15.2017 24.9854C14.4829 25.0933 14.0786 25.3358 13.836 25.839C13.5755 26.369 13.5755 28.2558 13.836 28.7858C14.0876 29.2979 14.4739 29.5315 15.2735 29.6483C15.6329 29.7022 15.9384 29.7472 15.9474 29.7651C15.9563 29.7741 16.0282 29.9718 16.1181 30.2054L16.2798 30.6366L15.9563 31.0229C15.0669 32.1101 15.1747 32.7659 16.4325 33.9878C17.6274 35.1558 18.2114 35.2276 19.2806 34.3562L19.6759 34.0237L20.0802 34.1765C20.3048 34.2663 20.5024 34.3741 20.5384 34.419C20.5653 34.464 20.6282 34.7784 20.6731 35.1108C20.781 35.8296 21.0235 36.2339 21.5267 36.4765C22.0567 36.737 23.9435 36.737 24.4735 36.4765C24.9856 36.2249 25.2192 35.8386 25.336 35.039C25.3899 34.6796 25.4349 34.3651 25.4528 34.3651C25.4618 34.3562 25.6595 34.2753 25.8931 34.1854L26.3243 34.0237L26.7196 34.3562C27.7888 35.2276 28.3728 35.1558 29.5677 33.9878C30.8255 32.7659 30.9333 32.119 30.0438 31.0319L29.7114 30.6366L29.8642 30.2323C29.954 30.0077 30.0618 29.8101 30.1067 29.7741C30.1517 29.7472 30.4661 29.6843 30.7985 29.6394C31.5173 29.5315 31.9216 29.289 32.1642 28.7858C32.4247 28.2558 32.4247 26.369 32.1642 25.839C31.9126 25.3269 31.5263 25.0933 30.7267 24.9765C30.3673 24.9226 30.0618 24.8776 30.0528 24.8597C30.0438 24.8507 29.972 24.653 29.8821 24.4194L29.7204 23.9882L30.0438 23.6019C30.9153 22.5417 30.8345 21.9308 29.6755 20.7448C28.4536 19.487 27.8067 19.3792 26.7196 20.2687L26.3243 20.6011L25.92 20.4483C25.6954 20.3585 25.4978 20.2507 25.4618 20.2058C25.4349 20.1608 25.372 19.8464 25.3271 19.514C25.2192 18.7952 24.9767 18.3909 24.4735 18.1483C23.9435 17.8878 22.0388 17.8878 21.5177 18.1483ZM23.9524 20.089C24.0513 20.7718 24.3118 21.2839 24.6353 21.4546C25.336 21.805 25.947 22.0116 26.2974 22.0116C26.7466 22.0116 26.8903 21.9487 27.5462 21.4636L28.0044 21.1312L28.6063 21.7331L29.2083 22.344L28.9927 22.6046C28.211 23.539 28.1302 23.9882 28.5524 24.9765C28.9837 26.0007 29.2173 26.1894 30.2056 26.3601L30.8614 26.4679V27.3124V28.1569L30.2325 28.2558C29.5497 28.3546 29.0286 28.6241 28.8579 28.9476C28.5075 29.6483 28.3009 30.2593 28.3009 30.6097C28.3009 31.0589 28.3638 31.2026 28.8489 31.8585L29.1813 32.3167L28.5794 32.9187L27.9685 33.5206L27.7079 33.305C26.7735 32.5233 26.3243 32.4425 25.336 32.8558C24.3118 33.296 24.0872 33.5565 23.9435 34.5358L23.8446 35.1737H23.0001H22.1466L22.0478 34.5269C21.9489 33.871 21.7603 33.4757 21.4368 33.2421C21.0505 32.9636 20.0802 32.6132 19.6938 32.6132C19.2536 32.6132 19.1099 32.6761 18.454 33.1612L17.9958 33.4937L17.3938 32.8917L16.7919 32.2897L17.1513 31.8315C17.7802 31.0409 17.8431 30.5737 17.4567 29.6483C17.0165 28.6241 16.7829 28.4354 15.7946 28.2647L15.1388 28.1569L15.1118 27.2944L15.0849 26.4409L15.6509 26.378C16.7021 26.2522 17.0165 26.0187 17.4388 25.0034C17.7173 24.3655 17.7712 23.7546 17.5915 23.4222C17.5376 23.3144 17.3399 23.0179 17.1513 22.7663L16.8188 22.3081L17.4208 21.7062L18.0228 21.1042L18.481 21.4636C19.2806 22.1015 19.7298 22.1644 20.7091 21.7511C21.4997 21.4187 21.8681 21.0323 22.0028 20.4034C22.0567 20.1429 22.1017 19.8464 22.1017 19.7296C22.1017 19.6218 22.1286 19.496 22.1646 19.4601C22.2005 19.4241 22.5958 19.4151 23.045 19.4241L23.8536 19.4511L23.9524 20.089Z" fill="#4C7FFF"/>
<path d="M21.9285 23.1441C19.6555 23.755 18.2449 26.1179 18.8199 28.346C19.377 30.4753 21.4344 31.8769 23.5727 31.5624C25.4863 31.2929 26.9777 29.8105 27.2473 27.9058C27.6785 24.914 24.8305 22.3624 21.9285 23.1441ZM24.1746 24.6984C24.7945 24.9949 25.1809 25.3632 25.5223 25.9831C25.8008 26.4952 25.8277 26.612 25.8277 27.3128C25.8277 28.0226 25.8008 28.1214 25.5043 28.6605C24.1207 31.1761 20.3742 30.3765 20.1406 27.5195C20.0418 26.2257 20.8234 25.0488 22.0992 24.5816C22.6383 24.3839 23.6266 24.4468 24.1746 24.6984Z" fill="#4C7FFF"/>
<path d="M4.90391 21.6524C4.33789 21.7961 3.5293 22.2813 3.13398 22.7035C2.93633 22.9192 2.63984 23.3684 2.48711 23.7008L2.19961 24.3028V25.875V27.4473L2.48711 28.0492C2.63984 28.3817 2.93633 28.8309 3.14297 29.0555C3.53828 29.4867 4.60742 30.0887 5.0207 30.1157C5.14648 30.1246 4.54453 30.1516 3.68203 30.1875C2.2625 30.2324 2.06484 30.2594 1.66055 30.4571C1.08555 30.7356 0.546484 31.2746 0.267969 31.8496C0.0613281 32.2629 0.0433594 32.4157 0.0164062 33.8891L-0.0195312 35.4793L0.214062 35.7129C0.483594 35.9824 0.878906 36.0094 1.17539 35.7668C1.38203 35.6051 1.39102 35.5422 1.43594 34.0688C1.48086 32.3977 1.5168 32.2899 2.10078 31.8586C2.34336 31.6789 2.45117 31.6699 5.74844 31.6699C9.0457 31.6699 9.15351 31.6789 9.39609 31.8586C9.98008 32.2899 10.016 32.3977 10.0609 34.0688C10.1059 35.5422 10.1148 35.6051 10.3215 35.7668C10.618 36.0094 11.0133 35.9824 11.2828 35.7039L11.5164 35.4793L11.4805 33.8891L11.4535 32.2989L11.148 31.7328C10.8156 31.1129 10.4293 30.7446 9.7914 30.4391C9.44101 30.2684 9.18047 30.2324 7.81484 30.1875C6.95234 30.1516 6.35039 30.1246 6.47617 30.1157C6.88945 30.0887 7.95859 29.4867 8.35391 29.0555C8.56055 28.8309 8.85703 28.3817 9.00976 28.0492L9.29726 27.4473V25.866V24.2938L8.96484 23.611C8.35391 22.3891 7.27578 21.6614 5.94609 21.5985C5.56875 21.5805 5.10156 21.6074 4.90391 21.6524ZM6.41328 23.1078C6.90742 23.2516 7.65312 23.9973 7.79687 24.4914C7.94062 24.9676 7.94062 26.7824 7.79687 27.2586C7.65312 27.7528 6.90742 28.4985 6.41328 28.6422C5.56875 28.8938 4.89492 28.7141 4.26602 28.0762C3.69102 27.5102 3.59219 27.1778 3.59219 25.875C3.59219 24.5723 3.69102 24.2399 4.26602 23.6739C4.89492 23.036 5.56875 22.8653 6.41328 23.1078Z" fill="#4C7FFF"/>
<path d="M39.4039 21.6524C38.8379 21.7961 38.0293 22.2813 37.634 22.7035C37.4363 22.9192 37.1398 23.3684 36.9871 23.7008L36.6996 24.3028V25.875V27.4473L36.9871 28.0492C37.1398 28.3817 37.4363 28.8309 37.643 29.0555C38.0383 29.4867 39.1074 30.0887 39.5207 30.1157C39.6465 30.1246 39.0445 30.1516 38.182 30.1875C36.7625 30.2324 36.5648 30.2594 36.1605 30.4571C35.5855 30.7356 35.0465 31.2746 34.768 31.8496C34.5613 32.2629 34.5434 32.4157 34.5164 33.8891L34.4805 35.4793L34.7141 35.7129C34.9836 35.9824 35.3789 36.0094 35.6754 35.7668C35.882 35.6051 35.891 35.5422 35.9359 34.0688C35.9809 32.3977 36.0168 32.2899 36.6008 31.8586C36.8434 31.6789 36.9512 31.6699 40.2484 31.6699C43.5457 31.6699 43.6535 31.6789 43.8961 31.8586C44.4801 32.2899 44.516 32.3977 44.5609 34.0688C44.6059 35.5422 44.6148 35.6051 44.8215 35.7668C45.118 36.0094 45.5133 35.9824 45.7828 35.7039L46.0164 35.4793L45.9805 33.8891L45.9535 32.2989L45.648 31.7328C45.3156 31.1129 44.9293 30.7446 44.2914 30.4391C43.941 30.2684 43.6805 30.2324 42.3148 30.1875C41.4523 30.1516 40.8504 30.1246 40.9762 30.1157C41.3895 30.0887 42.4586 29.4867 42.8539 29.0555C43.0605 28.8309 43.357 28.3817 43.5098 28.0492L43.7973 27.4473V25.866V24.2938L43.4648 23.611C42.8539 22.3891 41.7758 21.6614 40.4461 21.5985C40.0687 21.5805 39.6016 21.6074 39.4039 21.6524ZM40.9133 23.1078C41.4074 23.2516 42.1531 23.9973 42.2969 24.4914C42.3598 24.6981 42.4047 25.318 42.4047 25.875C42.4047 26.4321 42.3598 27.052 42.2969 27.2586C42.1531 27.7528 41.4074 28.4985 40.9133 28.6422C40.0687 28.8938 39.3949 28.7141 38.766 28.0762C38.191 27.5102 38.0922 27.1778 38.0922 25.875C38.0922 24.5723 38.191 24.2399 38.766 23.6739C39.3949 23.036 40.0687 22.8653 40.9133 23.1078Z" fill="#4C7FFF"/>
<path d="M10.6016 37.3482C10.3141 37.456 10.0625 37.7705 10.0625 38.022C10.0625 38.3455 10.6824 39.0193 11.7695 39.8908C16.5492 43.6912 22.8832 44.8412 28.6152 42.9365C31.1668 42.0919 33.916 40.4209 35.4703 38.7857C36.0094 38.2017 36.0723 37.8962 35.7129 37.5548C35.3086 37.1775 35.066 37.2673 34.0867 38.1298C29.5047 42.1818 23.3684 43.4396 17.6633 41.499C15.4621 40.7533 13.7012 39.7021 11.7695 37.9951C11.0957 37.3931 10.8531 37.2584 10.6016 37.3482Z" fill="#4C7FFF"/>
</g>
<defs>
<clipPath id="clip0_347_1204">
<rect width="46" height="46" fill="white"/>
</clipPath>
</defs>
</svg>
