<svg width="42" height="42" viewBox="0 0 42 42" fill="none" xmlns="http://www.w3.org/2000/svg">
<path d="M8.93974 0.156059C6.37216 0.697465 4.29677 2.79747 3.76357 5.36504C2.7874 10.0818 6.97919 14.2736 11.696 13.2975C14.2882 12.7643 16.3718 10.6807 16.905 8.08848C17.1018 7.14512 17.1018 6.3084 16.905 5.36504C16.1585 1.74747 12.5573 -0.606832 8.93974 0.156059ZM11.4909 1.79668C13.4351 2.29708 14.764 3.62598 15.2643 5.57012C15.7401 7.41583 15.0101 9.49122 13.4679 10.7053C12.8854 11.1647 12.2784 11.4518 11.4909 11.6568C9.64521 12.1326 7.56982 11.4025 6.35576 9.86036C5.89638 9.27794 5.60927 8.6709 5.40419 7.8834C4.92841 6.0377 5.65849 3.96231 7.20068 2.74825C8.42294 1.78848 10.039 1.42754 11.4909 1.79668Z" fill="#4C7FFF"/>
<path d="M10.8938 5.96367L9.43359 7.41563L8.9168 6.91523C8.63789 6.64453 8.32617 6.37383 8.21953 6.31641C7.76016 6.08672 7.13672 6.52148 7.13672 7.0793C7.13672 7.39102 7.18594 7.46484 8.10469 8.38359C9.04805 9.31875 9.08906 9.35156 9.43359 9.35156C9.78633 9.35156 9.80273 9.33516 11.4598 7.68633C12.3867 6.77578 13.2152 5.92266 13.3055 5.79961C13.3957 5.66836 13.4695 5.43867 13.4695 5.26641C13.4695 4.86445 13.0922 4.51172 12.6574 4.51172C12.3785 4.51172 12.2555 4.61016 10.8938 5.96367Z" fill="#4C7FFF"/>
<path d="M18.9909 0.0984344C18.4249 0.410152 18.392 1.26328 18.9335 1.53398C19.0073 1.5668 22.9366 1.61601 27.6616 1.64062L36.2585 1.68164L36.4799 1.91132L36.7096 2.13281V21V39.8672L36.4799 40.0887L36.2585 40.3184H21.0006H5.74283L5.52134 40.0887L5.29165 39.8672L5.25064 28.5551C5.20142 16.0945 5.25064 17.0789 4.69283 16.841C4.44673 16.7426 4.38111 16.7426 4.11861 16.8738C3.95455 16.9559 3.77408 17.1117 3.71665 17.2266C3.63462 17.3906 3.61822 19.8352 3.63462 28.793L3.65103 40.1543L3.8233 40.5316C4.05298 41.0238 4.58619 41.557 5.07837 41.7867L5.45572 41.959H21.0006H36.5456L36.9229 41.7867C37.4151 41.557 37.9483 41.0238 38.178 40.5316L38.3503 40.1543V21V1.8457L38.178 1.46836C37.9483 0.97617 37.4151 0.442966 36.9229 0.21328L36.5456 0.0410118L27.8503 0.0246048C21.5995 0.0082016 19.1057 0.0328102 18.9909 0.0984344Z" fill="#4C7FFF"/>
<path d="M19.6857 3.35492C19.1115 3.43695 18.8982 3.5518 18.7342 3.87172C18.6275 4.085 18.6193 4.18344 18.6931 4.42953C18.849 4.95453 18.8818 4.96273 20.6209 4.96273C21.8267 4.97094 22.3353 5.00375 22.8439 5.11859C25.6986 5.75844 27.9381 7.46469 29.2177 9.97484C29.9478 11.4022 30.2267 12.5588 30.2267 14.1913C30.2267 15.7909 29.956 16.9721 29.267 18.3338C28.9552 18.9573 28.299 19.958 28.1349 20.0565C28.0939 20.0811 27.9052 19.876 27.7166 19.5889C26.9701 18.4897 25.6658 17.4151 24.4107 16.8491C24.1154 16.7178 23.8693 16.5866 23.8693 16.562C23.8693 16.5373 23.9841 16.3651 24.1236 16.1928C24.7388 15.4217 25.0177 14.5276 25.0177 13.3217C25.0177 11.96 24.706 11.0577 23.9513 10.2291C23.1556 9.35141 22.1466 8.90844 20.9982 8.90844C19.8498 8.90844 18.8408 9.35141 18.0451 10.2291C17.2904 11.0577 16.9787 11.96 16.9787 13.3217C16.9787 14.5276 17.2576 15.4217 17.8728 16.1928C18.0123 16.3651 18.1271 16.5373 18.1189 16.562C18.1189 16.5866 17.7908 16.767 17.3888 16.9639C16.0763 17.5955 14.9689 18.5553 14.1732 19.7448L13.8943 20.1713L13.5006 19.6299C12.7541 18.5963 12.1552 17.2346 11.8927 15.9631C11.7615 15.3397 11.5318 15.0936 11.0724 15.0936C10.8017 15.0936 10.6787 15.1428 10.4818 15.3479C10.2439 15.5776 10.2357 15.6186 10.2767 16.0616C10.408 17.292 11.2201 19.2526 12.106 20.4748C13.2709 22.0909 14.6326 23.2229 16.3717 24.0432C18.5045 25.0522 20.867 25.3311 23.1966 24.8553C26.8634 24.1088 29.9396 21.451 31.2521 17.8745C31.6951 16.6768 31.8591 15.7006 31.8591 14.1913C31.8591 12.6819 31.6951 11.7057 31.2521 10.508C29.9396 6.93148 26.8716 4.28188 23.1884 3.51898C22.2779 3.33031 20.4486 3.24828 19.6857 3.35492ZM21.9826 10.7623C22.4584 10.9674 22.8439 11.3366 23.1146 11.8534C23.2951 12.1979 23.3361 12.403 23.3607 13.092C23.4099 14.2733 23.2705 14.7245 22.647 15.3479C21.9498 16.0452 21.2115 16.2256 20.2599 15.9467C19.6201 15.758 18.931 15.0526 18.7424 14.3963C18.5373 13.7073 18.6029 12.403 18.8572 11.8944C19.4724 10.6967 20.7603 10.2291 21.9826 10.7623ZM21.9088 17.8006C23.7545 18.0631 25.4197 19.1213 26.4451 20.6635C26.6502 20.9752 26.8224 21.2623 26.8224 21.3116C26.8224 21.4428 25.8873 22.0827 25.1408 22.46C22.606 23.7479 19.6283 23.7807 17.0279 22.5584C16.306 22.2221 15.3627 21.6151 15.2314 21.4018C15.1658 21.2952 15.2396 21.1311 15.5513 20.6635C16.9459 18.5635 19.4396 17.4397 21.9088 17.8006Z" fill="#4C7FFF"/>
<path d="M4.13954 13.7733C3.61454 13.9948 3.47508 14.6756 3.87704 15.0694C4.36922 15.5698 5.20594 15.2252 5.20594 14.5198C5.20594 13.9784 4.61532 13.5682 4.13954 13.7733Z" fill="#4C7FFF"/>
<path d="M13.081 28.1447C12.474 28.4974 12.4822 29.2931 13.1138 29.6131C13.7045 29.9166 14.4181 29.2275 14.1556 28.6041C14.0982 28.4564 13.9916 28.2924 13.9178 28.2349C13.7373 28.0873 13.2779 28.0381 13.081 28.1447Z" fill="#4C7FFF"/>
<path d="M16.5689 28.1612C16.4541 28.2186 16.2982 28.3991 16.2162 28.5713C16.0686 28.8666 16.0686 28.883 16.2162 29.1783C16.2982 29.3506 16.4541 29.5311 16.5689 29.5885C16.8479 29.728 28.6275 29.7444 28.8982 29.6049C29.5135 29.285 29.5135 28.4647 28.8982 28.1448C28.6275 28.0053 16.8479 28.0217 16.5689 28.1612Z" fill="#4C7FFF"/>
<path d="M13.081 32.7385C12.474 33.0912 12.4822 33.8869 13.1138 34.2068C13.7045 34.5103 14.4181 33.8213 14.1556 33.1978C14.0982 33.0502 13.9916 32.8861 13.9178 32.8287C13.7373 32.681 13.2779 32.6318 13.081 32.7385Z" fill="#4C7FFF"/>
<path d="M16.5689 32.7549C16.4541 32.8123 16.2982 32.9928 16.2162 33.1651C16.0686 33.4604 16.0686 33.4768 16.2162 33.7721C16.2982 33.9444 16.4541 34.1248 16.5689 34.1823C16.8479 34.3217 28.6275 34.3381 28.8982 34.1987C29.5135 33.8787 29.5135 33.0584 28.8982 32.7385C28.6275 32.5991 16.8479 32.6155 16.5689 32.7549Z" fill="#4C7FFF"/>
</svg>
