<svg width="206" height="59" viewBox="0 0 206 59" fill="none" xmlns="http://www.w3.org/2000/svg">
<g clip-path="url(#clip0_755_3528)">
<path d="M34.4954 32.0982V32.1001L33.8164 31.6973L34.4954 32.0982Z" fill="#FF7700"/>
<path d="M24.6689 13.3184L18.1133 9.60559V9.60394L24.6689 13.3184Z" fill="#192866"/>
<path d="M35.3984 27.4049L35.4105 27.398L35.3984 27.3912V27.4049Z" fill="#192866"/>
<path d="M34.4954 49.4757V49.4774L33.8164 49.0745L34.4954 49.4757Z" fill="#FF7700"/>
<path d="M36.0567 27.0262L35.4239 27.4066L35.4102 27.398L36.0567 27.0262Z" fill="#FF7700"/>
<path d="M50.9715 10.5406C50.973 10.8284 50.8198 11.0949 50.5702 11.2384L26.0764 25.3192L25.1539 25.8499C25.143 25.8561 25.1296 25.8559 25.119 25.8493L10.7239 17.6558C10.1906 17.3522 9.52818 17.7374 9.52818 18.3511V48.1213C9.52818 48.7413 8.85356 49.1256 8.32028 48.8095L0.3921 44.1105C0.149041 43.9664 0 43.7048 0 43.4223V1.37247C0 0.759573 0.660935 0.374317 1.19424 0.676352L9.52818 5.39624L24.8288 14.0633C25.0627 14.1958 25.3476 14.202 25.587 14.0796L49.7646 1.72899C50.2952 1.45792 50.9253 1.84131 50.9285 2.43717L50.9715 10.5406Z" fill="#001856"/>
<path d="M50.9493 43.5466C50.9478 43.8278 50.7987 44.0877 50.5567 44.2309L25.9988 58.7594C25.7477 58.908 25.4357 58.908 25.1845 58.7596L23.8092 57.9469L22.8224 57.3641L14.6734 52.5344C14.4303 52.3904 14.2812 52.1288 14.2812 51.8462V23.8497C14.2812 23.2404 14.9352 22.8548 15.4684 23.1496L23.3963 27.5338C23.651 27.6747 23.8092 27.9428 23.8092 28.2339V46.5815C23.8092 46.8087 23.9058 47.0252 24.0749 47.1769L24.7372 47.7711C24.9961 48.0034 25.3754 48.0418 25.6756 47.8661L42.9865 37.7317C43.2317 37.5882 43.3824 37.3254 43.3824 37.0413V32.7838C43.3824 32.1592 42.6985 31.7755 42.1654 32.1011L28.9166 40.1918C28.3835 40.5173 27.6997 40.1337 27.6997 39.509V29.8605C27.6997 29.5665 27.8609 29.2961 28.1197 29.1565L49.7743 17.4685C50.3056 17.1817 50.9509 17.5643 50.9543 18.1681L51.0015 26.7039V33.7407L50.9493 43.5466Z" fill="#0048FF"/>
<path d="M60.8477 28.1345V10.7895H63.5934L70.4123 21.4292H69.0152L75.8064 10.7895H78.573V28.1345H74.7291V17.3L75.4103 17.474L70.9755 24.4025H68.4246L64.0104 17.474L64.6707 17.3V28.1345H60.8477ZM80.5887 28.1345L87.4565 10.7895H90.9391L97.7303 28.1345H93.6571L88.4575 13.7419H89.8547L84.5857 28.1345H80.5887ZM84.4886 24.9873V21.8469H93.9281V24.9873H84.4886ZM102.707 20.9834V18.1357H106.364C107.135 18.1357 107.726 17.9406 108.143 17.5438C108.56 17.1538 108.769 16.6246 108.769 15.9491C108.769 15.3294 108.567 14.8142 108.157 14.4034C107.747 13.9925 107.156 13.7906 106.384 13.7906H102.707V10.7895H106.829C107.976 10.7895 108.977 11.0052 109.846 11.4369C110.715 11.8758 111.389 12.4745 111.883 13.2476C112.369 14.0203 112.613 14.9046 112.613 15.9005C112.613 16.917 112.369 17.8084 111.883 18.5674C111.389 19.3261 110.708 19.918 109.825 20.3429C108.943 20.7677 107.9 20.9834 106.704 20.9834H102.707ZM99.7669 28.1345V10.7895H103.618V28.1345H99.7669ZM109.186 28.1345L103.785 20.6702L107.316 19.7092L113.746 28.1345H109.186ZM126.223 28.1345L119.209 19.0964L126.008 10.7895H130.762L123.109 19.8067V18.233L131.005 28.1345H126.223ZM115.755 28.1345V10.7895H119.606V28.1345H115.755ZM133.042 28.1345V10.7895H136.893V28.1345H133.042ZM135.982 28.1345V24.7922H145.471V28.1345H135.982ZM135.982 20.8862V17.6691H144.616V20.8862H135.982ZM135.982 14.111V10.7895H145.353V14.111H135.982ZM152.366 28.1345V11.0401H156.217V28.1345H152.366ZM146.951 14.1596V10.7895H161.639V14.1596H146.951ZM163.794 28.1345V10.7895H167.645V28.1345H163.794ZM170.981 28.1345V10.7895H173.678L174.832 14.2572V28.1345H170.981ZM182.923 28.1345L172.719 15.0439L173.678 10.7895L183.883 23.8872L182.923 28.1345ZM182.923 28.1345L181.894 24.674V10.7895H185.745V28.1345H182.923ZM197.25 28.406C195.991 28.406 194.81 28.1763 193.705 27.7168C192.599 27.2571 191.64 26.6237 190.827 25.8089C190.007 25.0013 189.367 24.0543 188.901 22.9612C188.436 21.8749 188.199 20.6979 188.199 19.4377C188.199 18.1775 188.436 17.0076 188.915 15.9282C189.388 14.8491 190.048 13.9019 190.889 13.0873C191.73 12.2797 192.71 11.6529 193.844 11.2003C194.97 10.7477 196.179 10.5248 197.465 10.5248C198.953 10.5248 200.308 10.7963 201.524 11.3325C202.741 11.8686 203.756 12.6139 204.555 13.5677L201.928 16.1929C201.379 15.4756 200.725 14.9326 199.975 14.5704C199.217 14.2154 198.369 14.0343 197.416 14.0343C196.409 14.0343 195.498 14.2572 194.698 14.7098C193.899 15.1624 193.274 15.7892 192.822 16.5968C192.37 17.4113 192.147 18.3586 192.147 19.4377C192.147 20.5168 192.37 21.4709 192.808 22.2857C193.246 23.1074 193.85 23.7479 194.622 24.2005C195.394 24.66 196.276 24.8897 197.27 24.8897C198.285 24.8897 199.147 24.6949 199.863 24.3118C200.572 23.929 201.121 23.3789 201.504 22.6476C201.886 21.9167 202.081 21.0323 202.081 19.9807L204.632 21.7007L196.902 21.5754V18.3096H206.001V18.8735C206.001 20.9557 205.633 22.7034 204.889 24.117C204.145 25.5305 203.109 26.6028 201.796 27.32C200.482 28.0441 198.967 28.406 197.25 28.406Z" fill="#001856"/>
<path d="M113.356 49.3674C112.395 49.3674 111.484 49.1792 110.625 48.803C109.766 48.4326 109.021 47.914 108.378 47.2473C107.735 46.5804 107.234 45.811 106.864 44.9335C106.495 44.0558 106.312 43.1155 106.312 42.1124C106.312 41.1037 106.495 40.1691 106.864 39.2971C107.234 38.4252 107.741 37.6612 108.389 36.9946C109.038 36.3279 109.8 35.8149 110.676 35.4444C111.552 35.074 112.497 34.8915 113.515 34.8915C114.625 34.8915 115.66 35.1081 116.61 35.5357C117.56 35.963 118.351 36.5728 118.994 37.365L117.43 38.9322C117.014 38.3452 116.462 37.8893 115.768 37.5758C115.068 37.2625 114.318 37.1029 113.515 37.1029C112.554 37.1029 111.706 37.3136 110.978 37.7354C110.25 38.1628 109.686 38.75 109.282 39.4964C108.879 40.2488 108.679 41.1207 108.679 42.1124C108.679 43.1039 108.884 43.9759 109.294 44.734C109.698 45.4919 110.25 46.0847 110.949 46.512C111.643 46.9396 112.434 47.1561 113.316 47.1561C114.255 47.1561 115.057 46.9852 115.734 46.6431C116.411 46.3012 116.929 45.7939 117.293 45.1157C117.651 44.4375 117.833 43.6054 117.833 42.614L119.279 43.6568H113.276V41.548H120.217V41.8673C120.217 43.5428 119.922 44.939 119.324 46.0503C118.727 47.1619 117.919 47.9937 116.889 48.5411C115.859 49.0937 114.682 49.3674 113.356 49.3674ZM129.128 49.3674C128.121 49.3674 127.188 49.1792 126.317 48.803C125.447 48.4326 124.685 47.914 124.03 47.2473C123.376 46.5804 122.864 45.811 122.494 44.9335C122.124 44.0558 121.943 43.1155 121.943 42.1124C121.943 41.1037 122.124 40.1691 122.494 39.2971C122.864 38.4252 123.37 37.6612 124.019 36.9946C124.667 36.3279 125.424 35.8149 126.289 35.4444C127.148 35.074 128.081 34.8915 129.088 34.8915C130.095 34.8915 131.028 35.074 131.893 35.4444C132.752 35.8149 133.514 36.3279 134.169 36.9946C134.823 37.6612 135.329 38.4307 135.699 39.3084C136.069 40.1861 136.251 41.1265 136.251 42.1295C136.251 43.1383 136.069 44.0786 135.699 44.9563C135.329 45.8338 134.823 46.6032 134.174 47.2586C133.526 47.914 132.769 48.4326 131.91 48.803C131.045 49.1792 130.118 49.3674 129.128 49.3674ZM129.088 47.1561C130.038 47.1561 130.869 46.9396 131.586 46.512C132.302 46.0847 132.866 45.4919 133.276 44.734C133.679 43.9759 133.884 43.1039 133.884 42.1124C133.884 41.3771 133.77 40.6989 133.537 40.0891C133.304 39.4793 132.968 38.9495 132.541 38.4991C132.115 38.049 131.608 37.7069 131.028 37.4617C130.442 37.2224 129.799 37.1029 129.088 37.1029C128.149 37.1029 127.325 37.3136 126.613 37.7354C125.896 38.1628 125.333 38.75 124.924 39.4964C124.514 40.2488 124.309 41.1207 124.309 42.1124C124.309 42.8475 124.428 43.5315 124.662 44.1526C124.895 44.7739 125.225 45.3095 125.646 45.7483C126.067 46.1929 126.573 46.5406 127.165 46.7857C127.751 47.0305 128.394 47.1561 129.088 47.1561ZM136.556 49.1679L142.336 35.0968H143.941L149.681 49.1679H147.189L142.695 37.7698H143.537L139.002 49.1679H136.556ZM139.406 46.4551V44.4433H146.848V46.4551H139.406ZM153.296 49.1679V35.4955H155.606V49.1679H153.296ZM148.721 37.2054V35.0968H160.18V37.2054H148.721Z" fill="#0048FF"/>
<path d="M100.345 42.8234H78.5938V43.2081H100.345V42.8234Z" fill="#0048FF"/>
<path d="M188.266 42.8234H166.516V43.2081H188.266V42.8234Z" fill="#0048FF"/>
</g>
<defs>
<clipPath id="clip0_755_3528">
<rect width="206" height="59" fill="white"/>
</clipPath>
</defs>
</svg>
