<svg width="22" height="21" viewBox="0 0 22 21" fill="none" xmlns="http://www.w3.org/2000/svg">
<path d="M9.42362 1.10516C9.90259 -0.368939 11.988 -0.368941 12.467 1.10516L13.9538 5.68105C14.168 6.34028 14.7823 6.78662 15.4755 6.78662H20.2869C21.8368 6.78662 22.4813 8.77001 21.2273 9.68105L17.3348 12.5091C16.7741 12.9165 16.5394 13.6387 16.7536 14.298L18.2404 18.8738C18.7194 20.3479 17.0322 21.5737 15.7783 20.6627L11.8858 17.8346C11.325 17.4272 10.5656 17.4272 10.0049 17.8346L6.11237 20.6627C4.85843 21.5737 3.17126 20.3479 3.65022 18.8738L5.13702 14.298C5.35122 13.6387 5.11657 12.9165 4.55579 12.5091L0.663304 9.68105C-0.590638 8.77001 0.0538011 6.78662 1.60376 6.78662H6.41513C7.1083 6.78662 7.72263 6.34028 7.93682 5.68105L9.42362 1.10516Z" fill="#E3AF02"/>
</svg>
